<svg width="62" height="59" viewBox="0 0 62 59" fill="none" xmlns="http://www.w3.org/2000/svg">
<path d="M24.0699 9.29597L19.0369 11.7536C8.5231 16.8876 4.1941 29.5073 9.3678 39.9404C14.5415 50.3735 27.2587 54.6692 37.7725 49.5352L42.8055 47.0776C53.3193 41.9436 57.6482 29.3239 52.4746 18.8908C47.3009 8.45775 34.5837 4.16198 24.0699 9.29597Z" fill="#F9F9F9"/>
<path d="M29.9764 33.8238C29.9764 33.4867 29.9259 33.1858 29.8248 32.9216C29.7237 32.6484 29.5401 32.3976 29.2739 32.1699C29.0076 31.9422 28.6311 31.7145 28.1444 31.4864C27.6577 31.2497 27.0196 31.0082 26.2299 30.7621C25.33 30.4706 24.4714 30.1425 23.6542 29.778C22.8461 29.4045 22.1253 28.9716 21.4917 28.4796C20.8581 27.9875 20.3577 27.4135 19.9904 26.7574C19.6323 26.1013 19.4532 25.3359 19.4532 24.4612C19.4532 23.6138 19.6415 22.8484 20.0179 22.165C20.3944 21.4816 20.9224 20.8984 21.6019 20.4155C22.2814 19.9234 23.0803 19.5498 23.9985 19.2947C24.9168 19.0304 25.9269 18.8983 27.0288 18.8983C28.498 18.8983 29.7881 19.158 30.8991 19.6774C32.0195 20.1877 32.8919 20.9075 33.516 21.8369C34.1407 22.7573 34.4528 23.8279 34.4528 25.0489H29.9899C29.9899 24.5113 29.8754 24.0375 29.6459 23.6274C29.4255 23.2083 29.0856 22.8803 28.6265 22.6433C28.1766 22.4065 27.6119 22.288 26.9323 22.288C26.2712 22.288 25.7157 22.3882 25.2657 22.5887C24.825 22.78 24.4898 23.0443 24.2602 23.3814C24.0399 23.7186 23.9297 24.0876 23.9297 24.4885C23.9297 24.8074 24.0123 25.099 24.1776 25.3633C24.3521 25.6184 24.6 25.8599 24.9214 26.0877C25.2519 26.3064 25.656 26.516 26.1335 26.7164C26.6109 26.9169 27.1573 27.1082 27.7725 27.2905C28.8469 27.6276 29.7972 28.0012 30.6238 28.4112C31.4591 28.8213 32.1617 29.2861 32.7312 29.8055C33.3003 30.3248 33.7273 30.9126 34.012 31.5687C34.3059 32.2247 34.4528 32.9671 34.4528 33.7964C34.4528 34.6805 34.2782 35.4639 33.9294 36.1474C33.5895 36.8306 33.0938 37.4138 32.4417 37.8969C31.7991 38.3707 31.0278 38.7306 30.1278 38.9767C29.228 39.2228 28.2225 39.3458 27.1114 39.3458C26.1013 39.3458 25.105 39.2181 24.1225 38.963C23.14 38.6988 22.2493 38.2978 21.4504 37.7602C20.6607 37.2225 20.0271 36.539 19.5496 35.71C19.0813 34.8717 18.8472 33.8786 18.8472 32.7303H23.3374C23.3374 33.3316 23.4246 33.8419 23.5991 34.2612C23.7736 34.6711 24.0215 35.0038 24.3429 35.259C24.6735 35.5141 25.0729 35.6963 25.5412 35.8057C26.0095 35.915 26.5329 35.9695 27.1114 35.9695C27.7817 35.9695 28.3235 35.8786 28.7367 35.6963C29.1591 35.5051 29.4713 35.2453 29.6732 34.9172C29.8754 34.5892 29.9764 34.2247 29.9764 33.8238ZM37.1111 37.0493C37.1111 36.43 37.3315 35.9104 37.7723 35.4914C38.2221 35.0721 38.8051 34.8624 39.5215 34.8624C40.247 34.8624 40.8256 35.0721 41.2569 35.4914C41.6977 35.9104 41.918 36.43 41.918 37.0493C41.918 37.6599 41.6977 38.1748 41.2569 38.5938C40.8256 39.0131 40.247 39.2228 39.5215 39.2228C38.8051 39.2228 38.2221 39.0131 37.7723 38.5938C37.3315 38.1748 37.1111 37.6599 37.1111 37.0493Z" fill="#D5D5D5"/>
</svg>
